<svg xmlns="http://www.w3.org/2000/svg" width="139.091" height="120" viewBox="0 0 139.091 120"><path d="M639,2198l88.637,12.02v95.025L639,2317.066Z" transform="translate(-603.545 -2198)" fill="#757575" fill-rule="evenodd"/><path d="M587,2209.748,622.455,2198v119.318L587,2305.571Z" transform="translate(-587 -2198)" fill="#636363" fill-rule="evenodd"/><path d="M594.9,2242.331l22.657-1.991,1.414,6.539-23.028,1.084Z" transform="translate(-589.514 -2211.472)" fill="#938f8f" fill-rule="evenodd"/><path d="M593.788,2224.416l22.389-3.866,1.4,6.389-22.753,2.993Z" transform="translate(-589.16 -2205.175)" fill="#938f8f" fill-rule="evenodd"/><g transform="translate(58.636 40.227)"><ellipse cx="40.227" cy="39.546" rx="40.227" ry="39.546" fill="#b0c0d7"/><g transform="translate(5.275 0.454)"><path d="M715.736,2257.682a18.268,18.268,0,0,1,2.53.068,8.714,8.714,0,0,1,1.79.348,4.627,4.627,0,0,1,2.2,1.432,16.448,16.448,0,0,1,2.508,5.475,46.123,46.123,0,0,1,1.711,16.923c-.035.389-.087.777-.151,1.159s-.143.771-.232,1.152a20.474,20.474,0,0,1-.662,2.229,17.325,17.325,0,0,1-1.9,3.832,7.591,7.591,0,0,1-2.555,2.461,4.748,4.748,0,0,1-1.544.518,4.9,4.9,0,0,1-.841.055,5.032,5.032,0,0,1-.886-.1c-4.7-.109-11.245-7.316-15.969-7.834-4.812-.818-8.4,2.516-12.341,2.441-3.669.246-8.5-1.807-8.568-6.293a5.348,5.348,0,0,1-.082-.784,6.408,6.408,0,0,1,.029-.818,9.123,9.123,0,0,1,.367-1.766,18.139,18.139,0,0,1,1.81-3.914,31.812,31.812,0,0,1,7.108-8.189c5.827-5.277,16.881-8.039,25.681-8.393h0Z" transform="translate(-680.737 -2257.666)" fill="#fee2ca" fill-rule="evenodd"/><path d="M739.4,2312.077c.555-.109,1.259,1.159,1.568,2.823s.117,3.1-.439,3.2-1.259-1.159-1.568-2.823S738.841,2312.179,739.4,2312.077Z" transform="translate(-699.215 -2274.976)" fill="#fee2ca" fill-rule="evenodd"/><path d="M741.725,2325.89c4.655.28,4.514,10.527,6.557,12.886,3.845,2.5-.551,11.775-5.216,12.123-5.454-.225,2.338-9.443-5.727-14.918-7.407-4.664,2.922-8.741,4.386-10.091Z" transform="translate(-697.904 -2279.373)" fill="#fee2ca" fill-rule="evenodd"/><path d="M742.164,2362.25c3-.866,6.188-3.763,10.276-5.836a13.591,13.591,0,0,0,4.644-3.784,16.528,16.528,0,0,0,.982-1.7,1.032,1.032,0,0,1,.325-.4.247.247,0,0,1,.326.089,1.6,1.6,0,0,1,.208.334,3.09,3.09,0,0,1,.182.477,3.908,3.908,0,0,1,.156,1.227,3.787,3.787,0,0,1-1.106,2.53c-1.445,1.479-3.78,2.386-5.322,3.4-3.042,2.209-5.8,4.063-9.648,4.95-3.417.989-8.228,1.732-11.455,2.509-1.526.341-2.217.361-2.671-.375-.244-.348-.513-.832-.818-1.309-.148-.232-.3-.464-.418-.668a3.2,3.2,0,0,1-.151-.293.931.931,0,0,1-.078-.246c-.4-1.35,3.168-.361,5.545-.1a20.512,20.512,0,0,0,9.02-.8h0Z" transform="translate(-695.637 -2287.206)" fill="#fee2ca" fill-rule="evenodd"/><path d="M767.706,2287.624c5.1-.416,10.886,9.293,12.076,13.97a21.038,21.038,0,0,1,.265,9.886c-.682,3.709-2.3,8.209-4.034,8.536-1.809.546-2.1-3.218-1.861-6.464.183-3.457.9-6.4-.235-9.048-.81-2.645-3.649-5.325-5.559-8.864-1.934-3.321-2.94-7.514-.651-8.018Z" transform="translate(-707.99 -2267.194)" fill="#fee2ca" fill-rule="evenodd"/><path d="M686.089,2330.324a1.512,1.512,0,0,1,.3-.436,1.4,1.4,0,0,1,.438-.3,1.674,1.674,0,0,1,1.159-.055,4.63,4.63,0,0,1,2.486,2.489c1.415,2.836,2.49,6.614,4.722,8.468,1.062,1.016,2.114,1.773,2.915,2.584a10.527,10.527,0,0,1,1.059,1.214c.151.2.291.4.42.607s.249.4.36.6c.818,1.6,1.48,2.877.732,3.58a1.512,1.512,0,0,1-.363.232,2.809,2.809,0,0,1-.495.157,5.353,5.353,0,0,1-1.333.089,9.058,9.058,0,0,1-3.394-.873c-2.363-1.057-4.15-3.416-5.553-6.1a30.33,30.33,0,0,1-1.709-3.743c-.215-.58-.394-1.138-.551-1.684-.078-.273-.151-.539-.221-.8s-.136-.519-.2-.777c-.409-2-1.331-3.852-.776-5.243h0Z" transform="translate(-682.385 -2280.508)" fill="#fee2ca" fill-rule="evenodd"/></g></g><g transform="translate(11.696 72.273)"><g transform="translate(0 22.5)"><path d="M625.867,2340c13.606.218,22.526,3.709,22.266,11.973.355,8.114-8.68,10.814-22.266,11.209-13.714-.409-22.208-3.007-21.691-11.27C603.845,2343.518,612.118,2340.259,625.867,2340Z" transform="translate(-604.154 -2337.955)" fill="#c9986f" fill-rule="evenodd"/><ellipse cx="19.773" cy="7.5" rx="19.773" ry="7.5" transform="translate(1.94)" fill="#575757"/></g><g transform="translate(0 10.227)"><path d="M625.867,2322c13.606.218,22.526,3.709,22.266,11.973.355,8.114-8.68,10.814-22.266,11.209-13.714-.409-22.208-3.007-21.691-11.271C603.845,2325.518,612.118,2322.259,625.867,2322Z" transform="translate(-604.154 -2319.955)" fill="#c9986f" fill-rule="evenodd"/><ellipse cx="19.773" cy="7.5" rx="19.773" ry="7.5" transform="translate(1.94)" fill="#575757"/></g><path d="M625.867,2304c13.606.218,22.526,3.709,22.266,11.973.355,8.114-8.68,10.814-22.266,11.209-13.714-.409-22.208-3.007-21.691-11.271C603.845,2307.518,612.118,2304.259,625.867,2304Z" transform="translate(-604.154 -2304)" fill="#c9986f" fill-rule="evenodd"/><ellipse cx="11.932" cy="3.75" rx="11.932" ry="3.75" transform="translate(9.44 4.091)" fill="#fff"/></g></svg>