<svg xmlns="http://www.w3.org/2000/svg" width="40.153" height="30" viewBox="0 0 40.153 30"><path d="M48.109,25.9c-.019-.875-.2-4.632-1.917-5.327C42.663,19.141,33.948,18,28.052,18S13.439,19.143,9.911,20.575c-1.715.7-1.9,4.456-1.916,5.329a2.531,2.531,0,0,0,.014.729l.335,1.783a1.7,1.7,0,0,0,1.988,1.425l7.735-1.588a1.8,1.8,0,0,0,1.343-2.109l-.4-2.2c.713-.105,1.429-.205,2.138-.3l-.231,3.563S9.379,33.73,9.379,36.155V48H46.724V36.155c0-2.345-11.536-8.949-11.536-8.949l-.231-3.562c.709.091,1.425.191,2.138.3l-.4,2.2a1.8,1.8,0,0,0,1.343,2.109l7.735,1.588a1.7,1.7,0,0,0,1.988-1.425l.335-1.783a2.546,2.546,0,0,0,.015-.73ZM28.052,23.1c.717,0,3.467.136,4.279.246,0-.015-.265,3.52-.273,3.51H24.045L23.8,23.341C25.349,23.189,26.806,23.1,28.052,23.1Zm0,20.046a5.322,5.322,0,1,1,5.393-5.321,5.322,5.322,0,0,1-5.393,5.321Z" transform="translate(-7.975 -18)" fill="#00cbff" fill-rule="evenodd"/></svg>