<svg xmlns="http://www.w3.org/2000/svg" width="91" height="96.759" viewBox="0 0 91 96.759"><g transform="translate(-621 -97)"><path d="M471.677,179.962A189.983,189.983,0,0,0,494.443,169.1a81.818,81.818,0,0,0,14.481-9.709c19.618-16.675,21.927-24.025,21.927-24.025l-13.114-5.814L549.57,112,555,146.228l-13.114-6.089s-6.745,8.454-16.012,19.253c-5.882,6.855-17.487,13.01-27.646,15.8C472.639,182.211,464,182.211,464,182.211Z" transform="translate(157 -15)" fill="#ffa114"/><rect width="16" height="22" transform="translate(646 171.759)" fill="#00cbff"/><rect width="16" height="13" transform="translate(621 180.759)" fill="#00cbff"/><rect width="16" height="30" transform="translate(671 163.759)" fill="#00cbff"/><rect width="16" height="52" transform="translate(696 141.759)" fill="#00cbff"/></g></svg>