<svg xmlns="http://www.w3.org/2000/svg" width="400" height="109.298" viewBox="0 0 400 109.298"><g opacity="0.3"><g transform="translate(283.112 18.975)"><rect width="106.262" height="4.554" transform="translate(10.626 3.036)" fill="#929292"/><circle cx="5.693" cy="5.693" r="5.693" transform="translate(0)" fill="#929292"/></g><g transform="translate(147.249)"><rect width="242.884" height="4.554" transform="translate(9.867 3.036)" fill="#929292"/><circle cx="5.693" cy="5.693" r="5.693" transform="translate(0)" fill="#929292"/></g><g transform="translate(103.226 44.023)"><g transform="translate(9.108)"><rect width="125.996" height="4.554" transform="translate(161.67)" fill="#929292"/><path d="M222.88,545.917l-57.96,57.96-3.22-3.22L219.663,542.7Z" transform="translate(-57.947 -542.169)" fill="#929292" fill-rule="evenodd"/><rect width="106.262" height="4.554" transform="translate(0 56.926)" fill="#929292"/></g><circle cx="5.693" cy="5.693" r="5.693" transform="translate(0 53.89)" fill="#929292"/></g><g transform="translate(0 33.397)"><g transform="translate(9.867 2.808)"><rect width="125.996" height="4.554" transform="translate(264.136 57.154)" fill="#929292"/><path d="M222.88,611.66,164.92,553.7l-3.22,3.22,57.964,57.956Z" transform="translate(44.52 -553.7)" fill="#929292" fill-rule="evenodd"/><rect width="208.729" height="4.554" transform="translate(0 0.228)" fill="#929292"/></g><circle cx="5.693" cy="5.693" r="5.693" transform="translate(0)" fill="#929292"/></g></g></svg>