<svg xmlns="http://www.w3.org/2000/svg" width="132.913" height="120" viewBox="0 0 132.913 120"><g transform="translate(-0.008 -0.01)"><g transform="translate(0.008 0.01)"><path d="M1049.809,2292.586c.57-8.056,6.2-26.925,18.329-33.394a86.058,86.058,0,0,0,5.5,6.636c6.287-10.661,17.95-14.905,26.416-18.664-13.219-3.766-28.451-9.036-40.509-4.359.562,1.595,1.207,3.318,2.012,5.156-12.172,7.122-24.115,27.023-28,39.028a169.584,169.584,0,0,1,16.249,5.6h0Z" transform="translate(-1033.118 -2236.421)" fill="#d2a787" fill-rule="evenodd"/><path d="M1132.3,2249.749c8.967.524,29.992,5.634,37.2,16.659-2.407,1.458-4.882,3.128-7.4,5,11.875,5.71,16.606,16.31,20.79,24.009,4.191-12.012,10.068-25.862,4.852-36.819-1.777.509-3.7,1.093-5.733,1.83-7.935-11.063-30.106-21.921-43.478-25.444a135.48,135.48,0,0,1-6.234,14.769Z" transform="translate(-1056.885 -2234.98)" fill="#575757" fill-rule="evenodd"/><path d="M1170.57,2319.05c-.577,8.056-6.226,26.925-18.39,33.394-1.61-2.156-3.455-4.381-5.513-6.636-6.31,10.661-18.01,14.9-26.507,18.664,13.265,3.759,28.542,9.036,40.646,4.358-.562-1.6-1.207-3.325-2.02-5.156,12.209-7.122,24.2-27.024,28.087-39.028a170.678,170.678,0,0,1-16.3-5.6Z" transform="translate(-1053.962 -2255.216)" fill="#d2a787" fill-rule="evenodd"/><path d="M1090.664,2359.094c-9-.524-30.091-5.634-37.32-16.659,2.415-1.458,4.9-3.128,7.418-5-11.913-5.71-16.659-16.31-20.858-24.009-4.207,12.012-10.1,25.862-4.867,36.818,1.784-.509,3.705-1.093,5.755-1.83,7.958,11.063,30.2,21.921,43.614,25.444a136.292,136.292,0,0,1,6.257-14.768h0Z" transform="translate(-1032.978 -2253.863)" fill="#575757" fill-rule="evenodd"/></g><g transform="translate(8.377 25.841)"><rect width="116.932" height="22.779" rx="10" fill="#b7c4da"/><circle cx="6.454" cy="6.454" r="6.454" transform="translate(5.315 5.315)" fill="#575757"/><circle cx="4.176" cy="4.176" r="4.176" transform="translate(7.593 7.593)" fill="#fee2ca"/><rect width="33.409" height="10.63" rx="5.315" transform="translate(75.171 6.834)" fill="#fee2ca"/><circle cx="3.417" cy="3.417" r="3.417" transform="translate(78.208 9.112)" fill="#575757"/><circle cx="3.417" cy="3.417" r="3.417" transform="translate(88.838 9.112)" fill="#af5715"/><circle cx="3.417" cy="3.417" r="3.417" transform="translate(99.468 9.112)" fill="#5b8ce3"/><g transform="translate(0 25.816)"><rect width="116.932" height="22.779" rx="10" fill="#b7c4da"/><circle cx="6.454" cy="6.454" r="6.454" transform="translate(5.315 5.315)" fill="#575757"/><circle cx="4.176" cy="4.176" r="4.176" transform="translate(7.593 7.593)" fill="#fee2ca"/><rect width="33.409" height="10.63" rx="5.315" transform="translate(75.171 6.834)" fill="#fee2ca"/><circle cx="3.417" cy="3.417" r="3.417" transform="translate(78.208 9.112)" fill="#575757"/><circle cx="3.417" cy="3.417" r="3.417" transform="translate(88.838 9.112)" fill="#af5715"/><circle cx="3.417" cy="3.417" r="3.417" transform="translate(99.468 9.112)" fill="#5b8ce3"/></g><g transform="translate(0 51.632)"><rect width="116.932" height="22.779" rx="10" fill="#b7c4da"/><circle cx="6.454" cy="6.454" r="6.454" transform="translate(5.315 5.315)" fill="#575757"/><circle cx="4.176" cy="4.176" r="4.176" transform="translate(7.593 7.593)" fill="#fee2ca"/><rect width="33.409" height="10.63" rx="5.315" transform="translate(75.171 6.834)" fill="#fee2ca"/><circle cx="3.417" cy="3.417" r="3.417" transform="translate(78.208 9.112)" fill="#575757"/><circle cx="3.417" cy="3.417" r="3.417" transform="translate(88.838 9.112)" fill="#af5715"/><circle cx="3.417" cy="3.417" r="3.417" transform="translate(99.468 9.112)" fill="#5b8ce3"/></g></g></g></svg>